<svg width="145" height="61" viewBox="0 0 145 61" fill="none" xmlns="http://www.w3.org/2000/svg">
<rect width="145" height="61" fill="white"/>
<rect x="7" y="7" width="5" height="5" rx="1" fill="#32C040"/>
<rect x="7" y="13" width="5" height="5" rx="1" fill="#32C040"/>
<rect x="7" y="19" width="5" height="5" rx="1" fill="#32C040"/>
<rect x="7" y="25" width="5" height="5" rx="1" fill="#32C040"/>
<rect x="13" y="1" width="5" height="5" rx="1" fill="#32C040"/>
<rect x="13" y="31" width="5" height="5" rx="1" fill="#32C040"/>
<rect x="19" y="1" width="5" height="5" rx="1" fill="#32C040"/>
<rect x="19" y="31" width="5" height="5" rx="1" fill="#32C040"/>
<rect x="25" y="1" width="5" height="5" rx="1" fill="#32C040"/>
<rect x="25" y="31" width="5" height="5" rx="1" fill="#32C040"/>
<rect x="31" y="1" width="5" height="5" rx="1" fill="#32C040"/>
<rect x="31" y="31" width="5" height="5" rx="1" fill="#32C040"/>
<rect x="37" y="7" width="5" height="5" rx="1" fill="#32C040"/>
<rect x="37" y="13" width="5" height="5" rx="1" fill="#32C040"/>
<rect x="37" y="19" width="5" height="5" rx="1" fill="#32C040"/>
<rect x="37" y="25" width="5" height="5" rx="1" fill="#32C040"/>
<rect x="37" y="31" width="5" height="5" rx="1" fill="#32C040"/>
<rect x="37" y="37" width="5" height="5" rx="1" fill="#32C040"/>
<rect x="37" y="43" width="5" height="5" rx="1" fill="#32C040"/>
<rect x="37" y="49" width="5" height="5" rx="1" fill="#32C040"/>
<rect x="37" y="55" width="5" height="5" rx="1" fill="#32C040"/>
<rect x="49" y="13" width="5" height="5" rx="1" fill="#32C040"/>
<rect x="49" y="19" width="5" height="5" rx="1" fill="#32C040"/>
<rect x="49" y="25" width="5" height="5" rx="1" fill="#32C040"/>
<rect x="49" y="31" width="5" height="5" rx="1" fill="#32C040"/>
<rect x="49" y="37" width="5" height="5" rx="1" fill="#32C040"/>
<rect x="49" y="43" width="5" height="5" rx="1" fill="#32C040"/>
<rect x="55" y="49" width="5" height="5" rx="1" fill="#32C040"/>
<rect x="61" y="49" width="5" height="5" rx="1" fill="#32C040"/>
<rect x="67" y="49" width="5" height="5" rx="1" fill="#32C040"/>
<rect x="73" y="49" width="5" height="5" rx="1" fill="#32C040"/>
<rect x="79" y="49" width="5" height="5" rx="1" fill="#32C040"/>
<rect x="85" y="13" width="5" height="5" rx="1" fill="#32C040"/>
<rect x="85" y="19" width="5" height="5" rx="1" fill="#32C040"/>
<rect x="85" y="25" width="5" height="5" rx="1" fill="#32C040"/>
<rect x="85" y="31" width="5" height="5" rx="1" fill="#32C040"/>
<rect x="85" y="37" width="5" height="5" rx="1" fill="#32C040"/>
<rect x="85" y="43" width="5" height="5" rx="1" fill="#32C040"/>
<rect x="97" y="13" width="5" height="5" rx="1" fill="#32C040"/>
<rect x="97" y="7" width="5" height="5" rx="1" fill="#32C040"/>
<rect x="97" y="1" width="5" height="5" rx="1" fill="#32C040"/>
<rect x="97" y="19" width="5" height="5" rx="1" fill="#32C040"/>
<rect x="97" y="25" width="5" height="5" rx="1" fill="#32C040"/>
<rect x="97" y="31" width="5" height="5" rx="1" fill="#32C040"/>
<rect x="97" y="37" width="5" height="5" rx="1" fill="#32C040"/>
<rect x="97" y="43" width="5" height="5" rx="1" fill="#32C040"/>
<rect x="97" y="49" width="5" height="5" rx="1" fill="#32C040"/>
<rect x="103" y="25" width="5" height="5" rx="1" fill="#32C040"/>
<rect x="103" y="55" width="5" height="5" rx="1" fill="#32C040"/>
<rect x="109" y="25" width="5" height="5" rx="1" fill="#32C040"/>
<rect x="109" y="55" width="5" height="5" rx="1" fill="#32C040"/>
<rect x="115" y="25" width="5" height="5" rx="1" fill="#32C040"/>
<rect x="115" y="55" width="5" height="5" rx="1" fill="#32C040"/>
<rect x="121" y="25" width="5" height="5" rx="1" fill="#32C040"/>
<rect x="121" y="55" width="5" height="5" rx="1" fill="#32C040"/>
<rect x="127" y="31" width="5" height="5" rx="1" fill="#32C040"/>
<rect x="127" y="37" width="5" height="5" rx="1" fill="#32C040"/>
<rect x="127" y="43" width="5" height="5" rx="1" fill="#32C040"/>
<rect x="127" y="49" width="5" height="5" rx="1" fill="#32C040"/>
</svg>
